<?xml version="1.0" encoding="UTF-8" standalone="no"?>
<!-- Created with Inkscape (http://www.inkscape.org/) -->

<svg
   width="628.72839"
   height="519.41473"
   viewBox="0 0 166.35106 137.42848"
   version="1.1"
   id="svg5852"
   inkscape:version="1.1.1 (c3084ef, 2021-09-22)"
   sodipodi:docname="arrakis_spice_melange_logo.svg"
   inkscape:export-filename="/Users/logan/Documents/GitHub/spiceproductionbackontrack/images/arrakis_spice_melange_logo.png"
   inkscape:export-xdpi="96"
   inkscape:export-ydpi="96"
   xmlns:inkscape="http://www.inkscape.org/namespaces/inkscape"
   xmlns:sodipodi="http://sodipodi.sourceforge.net/DTD/sodipodi-0.dtd"
   xmlns="http://www.w3.org/2000/svg"
   xmlns:svg="http://www.w3.org/2000/svg">
  <sodipodi:namedview
     id="namedview5854"
     pagecolor="#ffffff"
     bordercolor="#666666"
     borderopacity="1.0"
     inkscape:pageshadow="2"
     inkscape:pageopacity="0.0"
     inkscape:pagecheckerboard="0"
     inkscape:document-units="mm"
     showgrid="false"
     lock-margins="true"
     fit-margin-top="0"
     fit-margin-left="0"
     fit-margin-right="0"
     fit-margin-bottom="0"
     units="px"
     inkscape:zoom="0.51134961"
     inkscape:cx="-247.38456"
     inkscape:cy="490.85791"
     inkscape:window-width="1312"
     inkscape:window-height="802"
     inkscape:window-x="0"
     inkscape:window-y="23"
     inkscape:window-maximized="0"
     inkscape:current-layer="layer1" />
  <defs
     id="defs5849" />
  <g
     inkscape:label="Layer 1"
     inkscape:groupmode="layer"
     id="layer1"
     transform="translate(-15.52265,-18.574135)">
    <ellipse
       style="fill:#6f918a;stroke-width:0.153703"
       id="path5878-4-5"
       cx="46.826656"
       cy="50.695572"
       ry="32.121437"
       rx="31.304007" />
    <ellipse
       style="fill:#d45500;stroke-width:0.264583"
       id="path5878"
       cx="106.84756"
       cy="89.772644"
       rx="55.1054"
       ry="54.070557" />
    <ellipse
       style="fill:#c8b7b7;stroke-width:0.121733"
       id="path5878-4"
       cx="156.52005"
       cy="131.12508"
       ry="24.877533"
       rx="25.353659" />
    <circle
       id="path6229"
       style="fill:#6f918a;stroke:#000000;stroke-width:0.264583"
       cx="69.334496"
       cy="129.35541"
       r="0.068920054" />
    <circle
       id="path6231"
       style="fill:#6f918a;stroke:#000000;stroke-width:0.264583"
       cx="69.334496"
       cy="129.35541"
       r="0.068920054" />
    <circle
       id="path6233"
       style="fill:#6f918a;stroke:#000000;stroke-width:0.264583"
       cx="75.026138"
       cy="135.04704"
       r="0.068920054" />
    <circle
       id="path6235"
       style="fill:#6f918a;stroke:#000000;stroke-width:0.264583"
       cx="75.026138"
       cy="135.04704"
       r="0.068920054" />
    <path
       style="fill:#ff9955;stroke-width:0.264583"
       id="path6619"
       d="m 75.512408,133.95017 c -7.357893,2.87957 -14.953398,5.36355 -22.751684,6.75126 -4.399148,0.78283 -11.898146,2.31796 -16.629179,-0.0478 -1.773589,-0.88688 -2.914243,-2.68996 -4.371364,-4.03493 0.0067,-2.20634 -0.534511,-4.48349 0.02003,-6.61901 2.670987,-10.28575 12.040494,-17.70703 21.576932,-21.28397 9.093637,-3.41086 14.12445,-2.79419 23.527829,-3.05334 6.809619,0.95104 13.977988,2.01105 19.793262,6.00586 2.416593,1.66008 2.388558,1.48191 1.339115,2.14419 -0.06314,0.33914 4.733131,1.23203 4.796271,0.89288 v 0 c 0.15658,-1.25399 0.73307,-2.52599 0.46974,-3.76198 -0.73287,-3.43977 -4.498569,-6.59555 -7.147553,-8.19206 -8.355698,-5.03586 -11.463843,-4.31672 -21.855681,-6.019025 -11.585271,0.560088 -16.107714,-0.311037 -27.075593,4.819145 -11.254497,5.26425 -22.153763,16.01904 -23.061134,29.15122 -0.245808,3.55753 1.267422,7.0185 1.901133,10.52775 2.332131,2.27516 4.028795,5.48066 6.996392,6.82549 3.81417,1.72848 8.220186,1.92896 12.407551,1.96783 3.840985,0.0357 7.662812,-0.81929 11.390275,-1.7469 6.565821,-1.63396 12.589902,-4.31105 18.214605,-8.01655 1.445548,-0.95231 2.633077,-2.24787 3.949617,-3.3718 0.20777,-0.24682 -3.282801,-3.18512 -3.490571,-2.9383 z" />
    <path
       style="fill:#ff9955;stroke-width:0.264583"
       id="path6742"
       d="m 152.73831,101.40587 c 0.9717,-0.56551 1.98894,-1.05915 2.91508,-1.696523 6.76375,-4.654822 12.43818,-11.029098 15.87605,-18.521751 0.89131,-1.942542 1.42256,-4.030869 2.13383,-6.046303 0.22761,-1.855354 0.69182,-3.696819 0.68284,-5.566061 -0.0188,-3.922509 -1.47751,-8.51794 -5.2098,-10.4805 -0.96851,-0.509273 -2.0899,-0.903931 -3.18038,-0.813316 -1.56326,0.129902 -2.98474,0.966417 -4.47711,1.449625 -0.57754,0.757955 -1.27852,1.436103 -1.73262,2.273861 -1.30048,2.399245 -1.25915,5.904243 0.53723,8.05606 0.4135,0.495311 0.99187,0.825511 1.4878,1.238266 2.80029,0.422936 3.07477,1.134634 5.07954,-0.19834 0.76549,-0.508979 1.11467,-1.083127 1.62117,-1.781984 0.28612,-0.394796 0.25644,-0.523545 0.27371,-0.273913 -0.0485,0.0666 -0.0971,0.133189 -0.14557,0.199782 0.3378,-0.278387 -3.59919,-5.055603 -3.93699,-4.777216 v 0 c -0.22109,0.165713 -0.44219,0.331427 -0.66328,0.497141 -0.20006,0.21173 -0.40398,0.419878 -0.60017,0.635193 -0.83472,0.916096 -0.0784,0.01572 0.15023,0.04925 0.74777,0.109683 1.46263,0.381463 2.19394,0.572194 0.0839,0.192391 0.20713,0.372073 0.25173,0.57717 0.0174,0.07999 -0.0146,0.288475 -0.0754,0.233719 -0.3653,-0.328702 -0.0767,-1.503045 -0.008,-1.921174 -0.61254,-0.02201 -1.27684,0.181319 -1.83763,-0.06608 -0.22485,-0.0992 -0.13964,-0.547788 0.0171,-0.737071 0.39187,-0.473228 1.02778,0.419772 1.18847,1.312336 0.47304,2.627622 -0.20877,3.865867 -0.87307,6.562966 -1.77975,4.167399 -2.36987,5.989404 -4.8574,9.912524 -2.88169,4.544751 -6.70432,8.23848 -10.01639,12.434168 -0.64093,0.811924 -1.18534,1.695587 -1.77801,2.543381 -0.30636,0.35238 4.67705,4.684986 4.98341,4.332596 z" />
    <ellipse
       style="fill:#d45500;fill-opacity:1;stroke-width:0.264583"
       id="path6936"
       cx="165.64606"
       cy="64.639603"
       rx="2.04128"
       ry="2.2887168" />
  </g>
</svg>
